<svg width="34" height="34" viewBox="0 0 34 34" fill="none" xmlns="http://www.w3.org/2000/svg">
<path d="M29.8973 25.1091L25.6137 4.74305C25.5583 4.47672 25.4508 4.22396 25.2975 3.99929C25.1441 3.77462 24.9478 3.58247 24.72 3.43388C24.4921 3.28529 24.2371 3.18319 23.9697 3.13343C23.7022 3.08368 23.4276 3.08726 23.1615 3.14397L17.1201 4.44234C16.5857 4.55934 16.1192 4.88261 15.8219 5.34183C15.5246 5.80105 15.4206 6.35907 15.5326 6.89452L19.8162 27.2606C19.9117 27.7252 20.1642 28.1429 20.5313 28.4432C20.8985 28.7436 21.3578 28.9084 21.8322 28.91C21.9788 28.9098 22.125 28.8942 22.2684 28.8635L28.3098 27.5652C28.8449 27.4479 29.3119 27.124 29.6092 26.664C29.9065 26.204 30.0101 25.6451 29.8973 25.1091ZM17.5525 6.47249C17.5525 6.46475 17.5525 6.46087 17.5525 6.46087L23.5926 5.17025L24.0224 7.21847L17.9823 8.51813L17.5525 6.47249ZM18.8431 12.5875L18.4107 10.5354L24.4534 9.23701L24.8845 11.2891L18.8431 12.5875ZM27.8775 25.5466L21.8374 26.8373L21.4076 24.789L27.4477 23.4894L27.8775 25.535C27.8775 25.5428 27.8775 25.5466 27.8775 25.5466ZM13.4225 4.13H7.22748C6.6798 4.13 6.15456 4.34757 5.7673 4.73483C5.38004 5.12209 5.16248 5.64733 5.16248 6.195V26.845C5.16248 27.3927 5.38004 27.9179 5.7673 28.3052C6.15456 28.6924 6.6798 28.91 7.22748 28.91H13.4225C13.9701 28.91 14.4954 28.6924 14.8827 28.3052C15.2699 27.9179 15.4875 27.3927 15.4875 26.845V6.195C15.4875 5.64733 15.2699 5.12209 14.8827 4.73483C14.4954 4.34757 13.9701 4.13 13.4225 4.13ZM7.22748 6.195H13.4225V8.26001H7.22748V6.195ZM13.4225 26.845H7.22748V24.78H13.4225V26.845Z" fill="white"/>
</svg>
