<svg width="12" height="12" viewBox="0 0 12 12" fill="none" xmlns="http://www.w3.org/2000/svg">
<path d="M9.58697 1.10596H3.31855C2.92738 1.10596 2.55222 1.26135 2.27562 1.53795C1.99902 1.81455 1.84363 2.1897 1.84363 2.58088V10.3242C1.84363 10.422 1.88248 10.5158 1.95163 10.5849C2.02078 10.6541 2.11456 10.6929 2.21236 10.6929H8.8495C8.9473 10.6929 9.04109 10.6541 9.11024 10.5849C9.17939 10.5158 9.21823 10.422 9.21823 10.3242C9.21823 10.2264 9.17939 10.1326 9.11024 10.0635C9.04109 9.99433 8.9473 9.95549 8.8495 9.95549H2.58109C2.58109 9.7599 2.65879 9.57232 2.79709 9.43402C2.93539 9.29572 3.12296 9.21802 3.31855 9.21802H9.58697C9.68476 9.21802 9.77855 9.17918 9.8477 9.11003C9.91685 9.04088 9.9557 8.94709 9.9557 8.84929V1.47469C9.9557 1.37689 9.91685 1.28311 9.8477 1.21396C9.77855 1.14481 9.68476 1.10596 9.58697 1.10596ZM9.21823 8.48056H3.31855C3.05958 8.48021 2.80514 8.54843 2.58109 8.6783V2.58088C2.58109 2.38529 2.65879 2.19772 2.79709 2.05941C2.93539 1.92111 3.12296 1.84342 3.31855 1.84342H9.21823V8.48056Z" fill="#64748B"/>
</svg>
