<svg width="42" height="42" viewBox="0 0 42 42" fill="none" xmlns="http://www.w3.org/2000/svg">
<path d="M5 21.1602L8.79764 9.26203C9.09248 8.34139 9.9203 7.72021 10.8531 7.72021H30.2273C31.1597 7.72021 31.9879 8.34139 32.2828 9.26203L36.08 21.1602L20.9785 29.9202L5 21.1602Z" fill="#E11D48"/>
<path d="M24.8009 21.1602C24.4716 21.1602 24.1843 21.3689 24.0663 21.6763C23.5212 23.0938 22.149 24.1002 20.54 24.1002C18.931 24.1002 17.5588 23.0938 17.0141 21.6763C16.8957 21.3689 16.6088 21.1602 16.2791 21.1602H5V29.8365C5 31.0755 5.97482 32.0802 7.17686 32.0802H33.9031C35.1052 32.0802 36.08 31.0755 36.08 29.8365V21.1602H24.8009Z" fill="#FB7185"/>
<path d="M35.9849 1.38036C34.5023 0.636542 32.6703 1.02042 31.0764 2.21364C29.4825 1.02 27.6504 0.636542 26.1678 1.38036C23.7432 2.59668 23.1728 6.36408 24.894 9.79464C26.1078 12.2143 28.5228 14.1517 31.0764 14.2298C33.63 14.1517 36.045 12.2147 37.2588 9.79464C38.9799 6.36408 38.4096 2.5971 35.9849 1.38036Z" fill="#FC7884"/>
</svg>
