<svg width="48" height="48" viewBox="0 0 48 48" fill="none" xmlns="http://www.w3.org/2000/svg">
<path d="M40.6867 12.2073C41.3026 12.815 41.7269 13.6219 41.8531 14.5344C42.7411 20.9597 42.721 27.4147 41.7989 33.9513C41.5363 35.8123 40.0464 37.2619 38.1754 37.4424C28.7467 38.352 19.2528 38.352 9.82464 37.4424C7.9536 37.2619 6.46368 35.8128 6.20112 33.9518C5.27904 27.4152 5.2584 20.9601 6.14688 14.5344C6.27312 13.6209 6.69792 12.8136 7.31472 12.2059C8.0496 11.4811 39.9518 11.4821 40.6867 12.2073Z" fill="#FECDD3"/>
<path d="M24 24.228C26.6184 24.228 37.0368 18.3764 40.6867 12.2074C39.9249 11.4591 38.8536 11.04 37.7169 11.04H10.283C9.14638 11.04 8.07646 11.4572 7.3147 12.2055C10.9646 18.3749 21.3816 24.228 24 24.228Z" fill="#E11D48"/>
</svg>
