<svg width="12" height="12" viewBox="0 0 12 12" fill="none" xmlns="http://www.w3.org/2000/svg">
<path d="M5.8997 6.26851C5.8997 6.36631 5.86085 6.4601 5.7917 6.52925C5.72255 6.5984 5.62876 6.63724 5.53096 6.63724H3.31858C3.22079 6.63724 3.127 6.5984 3.05785 6.52925C2.9887 6.4601 2.94985 6.36631 2.94985 6.26851C2.94985 6.17072 2.9887 6.07693 3.05785 6.00778C3.127 5.93863 3.22079 5.89978 3.31858 5.89978H5.53096C5.62876 5.89978 5.72255 5.93863 5.7917 6.00778C5.86085 6.07693 5.8997 6.17072 5.8997 6.26851ZM5.53096 4.42486H3.31858C3.22079 4.42486 3.127 4.46371 3.05785 4.53286C2.9887 4.60201 2.94985 4.6958 2.94985 4.79359C2.94985 4.89139 2.9887 4.98517 3.05785 5.05432C3.127 5.12347 3.22079 5.16232 3.31858 5.16232H5.53096C5.62876 5.16232 5.72255 5.12347 5.7917 5.05432C5.86085 4.98517 5.8997 4.89139 5.8997 4.79359C5.8997 4.6958 5.86085 4.60201 5.7917 4.53286C5.72255 4.46371 5.62876 4.42486 5.53096 4.42486ZM10.6932 7.44246V10.3245C10.6938 10.3896 10.6772 10.4536 10.645 10.5101C10.6129 10.5666 10.5664 10.6136 10.5103 10.6464C10.4541 10.6791 10.3903 10.6965 10.3253 10.6966C10.2603 10.6967 10.1964 10.6797 10.1401 10.6472L9.0339 10.0139L7.92771 10.6472C7.87141 10.6797 7.80752 10.6967 7.74252 10.6966C7.67751 10.6965 7.61369 10.6791 7.55754 10.6464C7.50139 10.6136 7.45489 10.5666 7.42277 10.5101C7.39064 10.4536 7.37403 10.3896 7.37462 10.3245V9.21836H1.84366C1.64808 9.21836 1.4605 9.14066 1.3222 9.00236C1.1839 8.86406 1.1062 8.67648 1.1062 8.4809V2.58121C1.1062 2.38562 1.1839 2.19805 1.3222 2.05975C1.4605 1.92145 1.64808 1.84375 1.84366 1.84375H9.95573C10.1513 1.84375 10.3389 1.92145 10.4772 2.05975C10.6155 2.19805 10.6932 2.38562 10.6932 2.58121V3.98838C10.9263 4.21159 11.1118 4.47968 11.2385 4.77649C11.3652 5.0733 11.4305 5.39269 11.4305 5.71542C11.4305 6.03815 11.3652 6.35754 11.2385 6.65435C11.1118 6.95116 10.9263 7.21925 10.6932 7.44246ZM7.37462 8.4809V7.44246C6.9728 7.05494 6.71885 6.53931 6.6566 5.98455C6.59435 5.42979 6.7277 4.87071 7.03364 4.40377C7.33958 3.93683 7.79892 3.59133 8.33239 3.42689C8.86586 3.26244 9.43999 3.28938 9.95573 3.50304V2.58121H1.84366V8.4809H7.37462ZM9.95573 7.9278C9.66371 8.0498 9.35038 8.11263 9.0339 8.11263C8.71742 8.11263 8.40409 8.0498 8.11208 7.9278V9.68941L8.84954 9.26721C8.90526 9.23536 8.96834 9.21861 9.03252 9.21861C9.0967 9.21861 9.15978 9.23536 9.2155 9.26721L9.95296 9.68941L9.95573 7.9278ZM10.6932 5.71542C10.6932 5.38724 10.5959 5.06644 10.4135 4.79357C10.2312 4.5207 9.97208 4.30803 9.66888 4.18244C9.36569 4.05685 9.03206 4.02399 8.71019 4.08801C8.38832 4.15204 8.09267 4.31007 7.86061 4.54213C7.62855 4.77418 7.47052 5.06984 7.4065 5.39171C7.34247 5.71358 7.37533 6.0472 7.50092 6.3504C7.62651 6.65359 7.83918 6.91274 8.11205 7.09507C8.38492 7.27739 8.70573 7.3747 9.0339 7.3747C9.2518 7.3747 9.46757 7.33179 9.66888 7.2484C9.8702 7.16501 10.0531 7.04279 10.2072 6.88871C10.3613 6.73463 10.4835 6.55171 10.5669 6.3504C10.6503 6.14909 10.6932 5.93332 10.6932 5.71542Z" fill="#64748B"/>
</svg>
