<svg width="24" height="24" viewBox="0 0 24 24" fill="none" xmlns="http://www.w3.org/2000/svg">
<path d="M21.3759 12C21.3759 12.2984 21.2574 12.5845 21.0464 12.7955C20.8354 13.0065 20.5493 13.125 20.2509 13.125H6.46964L11.2996 17.9541C11.511 18.1654 11.6297 18.4521 11.6297 18.7509C11.6297 19.0498 11.511 19.3365 11.2996 19.5478C11.0883 19.7592 10.8016 19.8779 10.5028 19.8779C10.2039 19.8779 9.91723 19.7592 9.70589 19.5478L2.95589 12.7978C2.85101 12.6933 2.76779 12.5691 2.71101 12.4324C2.65423 12.2956 2.625 12.149 2.625 12.0009C2.625 11.8529 2.65423 11.7063 2.71101 11.5695C2.76779 11.4328 2.85101 11.3086 2.95589 11.2041L9.70589 4.45407C9.81053 4.34942 9.93477 4.26641 10.0715 4.20978C10.2082 4.15314 10.3548 4.12399 10.5028 4.12399C10.6508 4.12399 10.7973 4.15314 10.934 4.20978C11.0708 4.26641 11.195 4.34942 11.2996 4.45407C11.4043 4.55872 11.4873 4.68295 11.5439 4.81968C11.6006 4.95641 11.6297 5.10295 11.6297 5.25094C11.6297 5.39894 11.6006 5.54548 11.5439 5.68221C11.4873 5.81894 11.4043 5.94317 11.2996 6.04782L6.46964 10.875H20.2509C20.5493 10.875 20.8354 10.9935 21.0464 11.2045C21.2574 11.4155 21.3759 11.7016 21.3759 12Z" fill="white"/>
</svg>
