<svg width="42" height="42" viewBox="0 0 42 42" fill="none" xmlns="http://www.w3.org/2000/svg">
<path d="M7.67045 34.44C7.83089 35.8176 9.12197 37.1469 10.5004 37.3401C17.5005 38.2826 24.5003 38.2826 31.5004 37.3401C32.8788 37.1473 34.1703 35.818 34.3304 34.44C35.2187 26.46 35.2187 18.48 34.3304 10.5C34.1703 9.1224 32.8788 7.7931 31.5004 7.5999C24.5003 6.65742 17.5005 6.65742 10.5004 7.5999C9.12197 7.7931 7.83047 9.12198 7.67045 10.5C6.78173 18.48 6.78173 26.46 7.67045 34.44Z" fill="#FBBF24"/>
<path d="M11.0257 31.9306C11.1295 32.8496 11.9846 33.7425 12.9044 33.8807C18.2245 34.6547 23.5443 34.6547 28.8644 33.8807C29.7842 33.7425 30.6389 32.8496 30.7431 31.9306C31.444 25.4907 31.444 19.0505 30.7431 12.6106C30.6393 11.6916 29.7842 10.7987 28.8644 10.6605C23.5443 9.88647 18.2245 9.88647 12.9044 10.6605C11.9846 10.7987 11.1295 11.6916 11.0257 12.6106C10.3248 19.0505 10.3248 25.4907 11.0257 31.9306Z" fill="#FDE68A"/>
<path d="M24.2079 6.19794C24.1105 4.45662 22.5771 2.94588 21.0004 2.94C19.4233 2.94588 17.8903 4.45662 17.7929 6.19794C16.7235 6.2139 15.6546 6.23826 14.5853 6.27018C14.0809 6.2874 13.6302 6.678 13.6151 7.13958C13.5748 8.39958 13.7159 9.65958 14.0385 10.9196C14.1599 11.3812 14.6605 11.8054 15.1204 11.8579C19.0403 12.2867 22.9605 12.2867 26.8804 11.8579C27.3403 11.8049 27.8409 11.3812 27.9623 10.9196C28.2849 9.65958 28.426 8.39958 28.3857 7.13958C28.3706 6.678 27.9199 6.2874 27.4155 6.27018C26.3462 6.23826 25.2773 6.21432 24.2079 6.19794Z" fill="#C9DCF4"/>
<path d="M21.0003 7.76999C20.1897 7.76999 19.5303 7.11059 19.5303 6.29999C19.5303 5.48939 20.1897 4.82999 21.0003 4.82999C21.8109 4.82999 22.4703 5.48939 22.4703 6.29999C22.4703 7.11059 21.8109 7.76999 21.0003 7.76999ZM21.0003 5.24999C20.4211 5.24999 19.9503 5.72123 19.9503 6.29999C19.9503 6.87875 20.4211 7.34999 21.0003 7.34999C21.5795 7.34999 22.0503 6.87875 22.0503 6.29999C22.0503 5.72123 21.5795 5.24999 21.0003 5.24999Z" fill="#4A254B"/>
<path d="M23.2617 26.04H14.535C14.3933 26.04 14.2783 25.8518 14.2783 25.62C14.2783 25.3881 14.3933 25.2 14.535 25.2H23.2617C23.4033 25.2 23.5183 25.3881 23.5183 25.62C23.5183 25.8518 23.4033 26.04 23.2617 26.04Z" fill="#4A254B"/>
<path d="M23.2617 30.6599H14.535C14.3933 30.6599 14.2783 30.4718 14.2783 30.2399C14.2783 30.0081 14.3933 29.8199 14.535 29.8199H23.2617C23.4033 29.8199 23.5183 30.0081 23.5183 30.2399C23.5183 30.4718 23.4033 30.6599 23.2617 30.6599Z" fill="#4A254B"/>
<path d="M28.4947 30.24L29.3242 29.4101C29.4225 29.3118 29.4225 29.152 29.3242 29.0537C29.2259 28.9554 29.0662 28.9554 28.9679 29.0537L28.1384 29.8836L27.3089 29.0537C27.2106 28.9554 27.0509 28.9554 26.9526 29.0537C26.8543 29.152 26.8543 29.3118 26.9526 29.4101L27.7821 30.24L26.9526 31.0699C26.8543 31.1682 26.8543 31.328 26.9526 31.4263C27.002 31.4757 27.0665 31.4999 27.131 31.4999C27.1955 31.4999 27.26 31.4752 27.3094 31.4263L28.1389 30.5965L28.9684 31.4263C29.0178 31.4757 29.0823 31.4999 29.1468 31.4999C29.2113 31.4999 29.2758 31.4752 29.3252 31.4263C29.4235 31.328 29.4235 31.1682 29.3252 31.0699L28.4947 30.24Z" fill="#4A254B"/>
<path d="M28.4947 25.62L29.3242 24.7901C29.4225 24.6918 29.4225 24.532 29.3242 24.4337C29.2259 24.3354 29.0662 24.3354 28.9679 24.4337L28.1384 25.2636L27.3089 24.4337C27.2106 24.3354 27.0509 24.3354 26.9526 24.4337C26.8543 24.532 26.8543 24.6918 26.9526 24.7901L27.7821 25.62L26.9526 26.4499C26.8543 26.5482 26.8543 26.708 26.9526 26.8063C27.002 26.8558 27.0665 26.88 27.131 26.88C27.1955 26.88 27.26 26.8553 27.3094 26.8063L28.1389 25.9765L28.9684 26.8063C29.0178 26.8558 29.0823 26.88 29.1468 26.88C29.2113 26.88 29.2758 26.8553 29.3252 26.8063C29.4235 26.708 29.4235 26.5482 29.3252 26.4499L28.4947 25.62Z" fill="#4A254B"/>
<path d="M23.2636 20.58H14.5369C14.3952 20.58 14.2803 20.3918 14.2803 20.16C14.2803 19.9282 14.3952 19.74 14.5369 19.74H23.2636C23.4053 19.74 23.5203 19.9282 23.5203 20.16C23.5203 20.3918 23.4053 20.58 23.2636 20.58Z" fill="#4A254B"/>
<path d="M28.4957 20.1601L29.3252 19.3302C29.4234 19.2319 29.4234 19.072 29.3252 18.9737C29.2269 18.8754 29.0672 18.8754 28.9689 18.9737L28.1394 19.8036L27.3099 18.9737C27.2116 18.8754 27.0519 18.8754 26.9536 18.9737C26.8553 19.072 26.8553 19.2319 26.9536 19.3302L27.7831 20.1601L26.9536 20.9899C26.8553 21.0882 26.8553 21.2481 26.9536 21.3464C27.003 21.3958 27.0675 21.42 27.132 21.42C27.1965 21.42 27.261 21.3953 27.3104 21.3464L28.1399 20.5165L28.9694 21.3464C29.0188 21.3958 29.0833 21.42 29.1478 21.42C29.2123 21.42 29.2768 21.3953 29.3262 21.3464C29.4245 21.2481 29.4245 21.0882 29.3262 20.9899L28.4957 20.1601Z" fill="#4A254B"/>
</svg>
