<svg width="34" height="34" viewBox="0 0 34 34" fill="none" xmlns="http://www.w3.org/2000/svg">
<path d="M30.9749 7.22751V25.8125C30.9749 26.0863 30.8662 26.349 30.6725 26.5426C30.4789 26.7362 30.2163 26.845 29.9424 26.845H20.6499C19.8298 26.845 19.0431 27.1703 18.4624 27.7495C17.8817 28.3287 17.5545 29.1146 17.5524 29.9348C17.5566 30.1456 17.4952 30.3525 17.3769 30.527C17.2586 30.7015 17.089 30.835 16.8916 30.9092C16.735 30.9697 16.5659 30.991 16.3991 30.9713C16.2323 30.9517 16.0728 30.8916 15.9345 30.7964C15.7961 30.7011 15.6831 30.5736 15.6052 30.4248C15.5273 30.276 15.4869 30.1105 15.4874 29.9425C15.4874 29.121 15.1611 28.3331 14.5802 27.7522C13.9993 27.1714 13.2114 26.845 12.3899 26.845H3.09744C2.82361 26.845 2.56098 26.7362 2.36735 26.5426C2.17372 26.349 2.06494 26.0863 2.06494 25.8125V7.22751C2.06494 6.95367 2.17372 6.69105 2.36735 6.49742C2.56098 6.30379 2.82361 6.19501 3.09744 6.19501H11.3574C12.4528 6.19501 13.5033 6.63013 14.2778 7.40466C15.0523 8.17918 15.4874 9.22966 15.4874 10.325V21.6477C15.4839 21.9141 15.5813 22.1721 15.7602 22.3696C15.939 22.5671 16.186 22.6896 16.4515 22.7124C16.5928 22.7218 16.7344 22.702 16.8677 22.6544C17.001 22.6067 17.123 22.5321 17.2263 22.4353C17.3295 22.3385 17.4117 22.2215 17.4678 22.0915C17.524 21.9616 17.5528 21.8215 17.5524 21.6799V10.325C17.5524 9.22966 17.9876 8.17918 18.7621 7.40466C19.5366 6.63013 20.5871 6.19501 21.6824 6.19501H29.9424C30.2163 6.19501 30.4789 6.30379 30.6725 6.49742C30.8662 6.69105 30.9749 6.95367 30.9749 7.22751Z" fill="white"/>
</svg>
