<svg width="138" height="138" viewBox="0 0 138 138" fill="none" xmlns="http://www.w3.org/2000/svg">
<path d="M116.438 17.25V103.5C116.438 104.644 115.983 105.741 115.174 106.549C114.366 107.358 113.269 107.812 112.125 107.812H38.8125C36.525 107.812 34.3312 108.721 32.7137 110.339C31.0962 111.956 30.1875 114.15 30.1875 116.438H103.5C104.644 116.438 105.741 116.892 106.549 117.701C107.358 118.509 107.812 119.606 107.812 120.75C107.812 121.894 107.358 122.991 106.549 123.799C105.741 124.608 104.644 125.062 103.5 125.062H25.875C24.7313 125.062 23.6344 124.608 22.8256 123.799C22.0169 122.991 21.5625 121.894 21.5625 120.75V30.1875C21.5625 25.6125 23.3799 21.2249 26.6149 17.9899C29.8499 14.7549 34.2375 12.9375 38.8125 12.9375H112.125C113.269 12.9375 114.366 13.3919 115.174 14.2006C115.983 15.0094 116.438 16.1063 116.438 17.25Z" fill="#E11D48"/>
</svg>
