<svg width="64" height="64" viewBox="0 0 64 64" fill="none" xmlns="http://www.w3.org/2000/svg">
<path d="M12.2717 46.2038C10.232 34.7796 10.232 23.3547 12.2717 11.9305C12.8448 8.71933 15.3085 6.15773 18.5108 5.38053C27.2325 3.26313 35.9542 3.26313 44.6759 5.38053C47.8789 6.15773 50.3419 8.71933 50.915 11.9305C52.9547 23.3547 52.9547 34.7796 50.915 46.2038C50.3419 49.415 47.8783 51.9766 44.6759 52.7538C35.9542 54.8712 27.2325 54.8712 18.5108 52.7538C15.3085 51.9766 12.8454 49.415 12.2717 46.2038Z" fill="#60A5FA"/>
<path d="M17.8439 19.6196H45.3442" stroke="#4A254B" stroke-width="1.57968" stroke-miterlimit="10" stroke-linecap="round" stroke-linejoin="round"/>
<path d="M17.8439 24.0713H38.6684" stroke="#4A254B" stroke-width="1.57968" stroke-miterlimit="10" stroke-linecap="round" stroke-linejoin="round"/>
<path d="M17.3766 28.4346H38.2011" stroke="#4A254B" stroke-width="1.57968" stroke-miterlimit="10" stroke-linecap="round" stroke-linejoin="round"/>
<path d="M46.7586 46.1273C46.7586 42.6375 43.9297 39.8086 40.4399 39.8086C36.9501 39.8086 34.1212 42.6375 34.1212 46.1273C34.1212 48.4646 35.3938 50.5005 37.2806 51.5936V58.7647C37.2806 59.2854 37.8752 59.5824 38.2916 59.2702L39.6817 58.2276C40.1309 57.8908 40.7489 57.8908 41.1982 58.2276L42.5883 59.2702C43.0047 59.5824 43.5993 59.2854 43.5993 58.7647V51.5936C45.486 50.5005 46.7586 48.4646 46.7586 46.1273Z" fill="#FB7369"/>
<path d="M40.4398 50.3318C38.1215 50.3318 36.2354 48.4457 36.2354 46.1273C36.2354 43.809 38.1215 41.9229 40.4398 41.9229C42.7582 41.9229 44.6443 43.809 44.6443 46.1273C44.6443 48.4457 42.7582 50.3318 40.4398 50.3318ZM40.4398 42.5547C38.4696 42.5547 36.8672 44.1571 36.8672 46.1273C36.8672 48.0975 38.4696 49.6999 40.4398 49.6999C42.41 49.6999 44.0124 48.0975 44.0124 46.1273C44.0124 44.1571 42.41 42.5547 40.4398 42.5547Z" fill="#4A254B"/>
<path d="M40.4405 53.0815C39.3335 53.0815 38.2258 52.8167 37.2129 52.2853C37.0588 52.2044 36.9987 52.013 37.0803 51.8588C37.1611 51.7034 37.3539 51.6459 37.5068 51.7261C39.3739 52.7061 41.5956 52.691 43.4489 51.6863C43.6018 51.6042 43.7939 51.6598 43.8773 51.8133C43.9607 51.9669 43.9038 52.1583 43.7503 52.2417C42.7165 52.8009 41.5785 53.0815 40.4405 53.0815Z" fill="#4A254B"/>
</svg>
