<svg width="32" height="32" viewBox="0 0 32 32" fill="none" xmlns="http://www.w3.org/2000/svg">
<path d="M30.5782 12.7981C30.4874 11.3024 29.2851 10.1162 27.7885 10.0592C22.9162 9.87361 18.0442 9.87361 13.1718 10.0592C11.6752 10.1162 10.473 11.3024 10.3821 12.7981C10.193 15.9075 10.193 19.0173 10.3821 22.1267C10.473 23.6224 11.6752 24.8087 13.1718 24.8656C16.1072 24.9773 19.0429 25.0135 21.9782 24.9904C23.0563 26.4288 25.0474 27.5376 27.4269 27.8413C27.4307 27.8416 27.4346 27.8423 27.4384 27.8429C27.8778 27.8986 28.1997 27.4263 27.9904 27.0359C27.6342 26.3719 27.3792 25.6455 27.2426 24.8813C27.4246 24.8749 27.6064 24.8727 27.7885 24.8656C29.2851 24.8087 30.4874 23.6224 30.5782 22.1267C30.7674 19.017 30.7674 15.9075 30.5782 12.7981Z" fill="#E11D48"/>
<path d="M13.5635 13.2496H27.3235" stroke="#FFF1F2" stroke-miterlimit="10" stroke-linecap="round" stroke-linejoin="round"/>
<path d="M13.6001 16.16H27.3601" stroke="#FFF1F2" stroke-miterlimit="10" stroke-linecap="round" stroke-linejoin="round"/>
<path d="M13.2798 19.04H27.0398" stroke="#FFF1F2" stroke-miterlimit="10" stroke-linecap="round" stroke-linejoin="round"/>
<path d="M13.2798 21.92H27.0398" stroke="#FFF1F2" stroke-miterlimit="10" stroke-linecap="round" stroke-linejoin="round"/>
<path d="M22.5714 7.14593C22.476 5.59041 21.2175 4.35681 19.6507 4.29761C14.5503 4.10465 9.44946 4.10465 4.34898 4.29761C2.78226 4.35681 1.52371 5.59041 1.42835 7.14593C1.23027 10.3795 1.23027 13.6135 1.42835 16.8471C1.52371 18.4026 2.78226 19.6362 4.34898 19.6954C4.52882 19.7021 4.70867 19.7043 4.88819 19.7107C4.74258 20.4791 4.48307 21.2103 4.12371 21.8807C3.90515 22.288 4.24146 22.7808 4.70002 22.7229L4.71187 22.7213C7.15155 22.4099 9.19826 21.2871 10.3365 19.8247C13.4415 19.8503 16.5461 19.8131 19.6511 19.6957C21.2178 19.6365 22.4763 18.4029 22.5717 16.8474C22.7695 13.6131 22.7695 10.3795 22.5714 7.14593Z" fill="#FB7185"/>
</svg>
