<svg width="42" height="42" viewBox="0 0 42 42" fill="none" xmlns="http://www.w3.org/2000/svg">
<path d="M37.6152 10.6595C37.548 8.98369 36.1662 7.65649 34.4904 7.65649H27.027C25.5948 7.65649 24.2676 8.41249 23.5326 9.64309L22.9782 10.5713H9.04681C7.30381 10.5713 5.88 11.9657 5.88 13.6919C5.88 18.3455 6.1488 22.9991 6.6864 27.6317C6.9048 29.5091 8.5218 30.9161 10.4286 30.9203L32.3232 30.9707C32.4156 31.6091 32.508 32.2517 32.613 32.8943C32.9532 34.9691 35.9394 34.9481 36.2796 32.8733C37.401 26.0021 37.842 17.8583 37.6152 10.6595Z" fill="#E11D48"/>
<path d="M32.6131 32.8903C31.7017 27.3127 31.2481 21.6931 31.2271 16.0735C31.2229 14.8471 30.2275 13.8601 29.0053 13.8601H6.72846C4.98126 13.8601 3.55745 15.2755 3.56165 17.0227C3.56585 21.5881 3.82626 26.5483 4.34286 31.0927C4.56126 32.9869 6.17826 34.4107 8.08505 34.4149L33.7513 34.4401H34.5115C34.1587 34.4401 32.8063 34.0705 32.6131 32.8903Z" fill="#FECDD3"/>
</svg>
