<svg width="63" height="63" viewBox="0 0 63 63" fill="none" xmlns="http://www.w3.org/2000/svg">
<path d="M15.5008 45.525C15.6025 46.9016 16.8265 48.1727 18.2037 48.3177C26.9918 49.2185 35.7798 49.2185 44.5678 48.3177C45.945 48.1727 47.1697 46.9016 47.2707 45.525C48.0604 34.4352 48.0604 23.346 47.2707 12.2561C47.169 10.8795 45.945 9.60905 44.5678 9.46342C35.7798 8.56265 26.9918 8.56265 18.2037 9.46342C16.8265 9.60779 15.6019 10.8795 15.5008 12.2561C14.7105 23.346 14.7105 34.4352 15.5008 45.525Z" fill="#E9D5FF"/>
<path d="M11.9932 45.227C12.1295 46.6048 13.3359 47.8314 14.6472 47.9362C25.8067 48.8012 36.9663 48.8012 48.1252 47.9362C49.4365 47.8314 50.6429 46.6042 50.7791 45.227C51.7044 35.6023 51.7044 25.9769 50.7791 16.3521C50.6436 14.9749 49.4365 13.7471 48.1252 13.6429C36.9656 12.7779 25.8061 12.7779 14.6472 13.6429C13.3359 13.7477 12.1295 14.9749 11.9932 16.3521C11.0674 25.9775 11.0674 35.6023 11.9932 45.227Z" fill="#E9D5FF"/>
<path d="M53.9867 33.8448C53.7324 32.467 52.3414 31.2913 51.005 31.2398C47.1634 31.1004 43.1467 31.0038 38.9209 30.9429C37.8381 30.9272 36.9241 31.6817 36.6109 32.7463C35.8093 35.4725 33.4233 36.5954 31.3858 36.5954C29.3482 36.5954 26.9623 35.4725 26.1607 32.7469C25.8474 31.6823 24.9335 30.9278 23.8507 30.9435C19.6255 31.0044 15.6082 31.1011 11.7665 31.2404C10.4301 31.2919 9.03911 32.4676 8.78489 33.8454C7.95191 38.4485 7.95191 46.4299 8.78489 51.0335C9.03911 52.4114 10.4301 53.5864 11.7665 53.6385C25.6202 54.1407 37.1513 54.1407 51.005 53.6385C52.3414 53.5871 53.7318 52.412 53.9867 51.0335C54.8196 46.4299 54.8196 38.4485 53.9867 33.8448Z" fill="#9333EA"/>
<path d="M17.7261 19.4905H45.0455" stroke="#4A254B" stroke-width="1.56929" stroke-miterlimit="10" stroke-linecap="round" stroke-linejoin="round"/>
<path d="M17.7261 23.9119H38.4137" stroke="#4A254B" stroke-width="1.56929" stroke-miterlimit="10" stroke-linecap="round" stroke-linejoin="round"/>
</svg>
